# Blender v2.91.0 OBJ File: ''
# www.blender.org
mtllib smoke.mtl
o Neue_Welt_(10)__2547_58_-1089_to_2595_255_-1061.001
v -1.000000 0.500000 1.000000
v -1.000000 0.500000 -1.000000
v 1.000000 0.500000 1.000000
v 1.000000 0.500000 -1.000000
v 0.500000 1.000000 -1.000000
v 0.500000 -1.000000 1.000000
v 0.500000 1.000000 1.000000
v 0.500000 -1.000000 -1.000000
v 1.000000 -0.500000 1.000000
v 1.000000 -0.500000 -1.000000
v -1.000000 -0.500000 1.000000
v -1.000000 -0.500000 -1.000000
v -1.000000 -1.000000 -0.500000
v -1.000000 1.000000 -0.500000
v 1.000000 -1.000000 -0.500000
v 1.000000 1.000000 -0.500000
v -0.500000 1.000000 1.000000
v -0.500000 -1.000000 -1.000000
v -0.500000 -1.000000 1.000000
v -0.500000 1.000000 -1.000000
v -1.000000 1.000000 0.500000
v -1.000000 -1.000000 0.500000
v 1.000000 1.000000 0.500000
v 1.000000 -1.000000 0.500000
vt 0.997317 0.001707
vt 0.997317 0.997813
vt 0.001706 0.997813
vt 0.997317 0.997813
vt 0.001706 0.997813
vt 0.001706 0.001707
vt 0.997317 0.997813
vt 0.001706 0.997813
vt 0.001706 0.001707
vt 0.001706 0.001707
vt 0.997317 0.997813
vt 0.997317 0.001707
vt 0.997317 0.001707
vt 0.997317 0.997813
vt 0.001706 0.997813
vt 0.001706 0.001707
vt 0.997317 0.001707
vt 0.997317 0.001707
vt 0.001706 0.997813
vt 0.001706 0.001707
vt 0.997317 0.001707
vt 0.001706 0.997813
vt 0.001706 0.001707
vt 0.997317 0.997813
vn 0.0000 -0.0000 1.0000
vn -1.0000 -0.0000 0.0000
vn 0.0000 0.0000 -1.0000
vn 0.0000 1.0000 0.0000
vn 0.0000 -1.0000 -0.0000
vn 1.0000 0.0000 0.0000
usemtl Stone
s 1
f 24/1/1 23/2/1 21/3/1
f 17/4/2 20/5/2 18/6/2
f 14/7/3 16/8/3 15/9/3
f 3/10/4 2/11/4 1/12/4
f 11/13/5 12/14/5 10/15/5
f 24/1/1 21/3/1 22/16/1
f 17/4/2 18/6/2 19/17/2
f 14/7/3 15/9/3 13/18/3
f 3/10/4 4/19/4 2/11/4
f 11/13/5 10/15/5 9/20/5
f 8/21/6 7/22/6 6/23/6
f 8/21/6 5/24/6 7/22/6
